<?xml version="1.0" encoding="iso-8859-1"?>
<!-- Generator: Adobe Illustrator 19.0.0, SVG Export Plug-In . SVG Version: 6.00 Build 0)  -->
<svg version="1.1" id="Layer_1" xmlns="http://www.w3.org/2000/svg" xmlns:xlink="http://www.w3.org/1999/xlink" x="0px" y="0px"
	 viewBox="0 0 512 512" style="enable-background:new 0 0 512 512;" xml:space="preserve">
<rect x="462.49" y="165.171" style="fill:#F67656;" width="16.489" height="301.747"/>
<rect x="478.976" y="165.171" style="fill:#E66847;" width="16.509" height="301.747"/>
<rect x="495.488" y="165.171" style="fill:#D65A38;" width="16.499" height="301.747"/>
<polygon style="fill:#EFEFEF;" points="512,165.164 495.455,136.568 478.999,136.563 462.5,165.164 "/>
<polygon style="fill:#D9D8D7;" points="512,165.164 495.483,165.164 489.974,136.563 495.455,136.568 "/>
<polygon style="fill:#3F4A5A;" points="495.455,136.568 487.209,122.294 478.999,136.563 "/>
<rect x="495.462" y="466.918" style="fill:#D9D8D7;" width="16.499" height="16.499"/>
<rect x="462.49" y="466.893" style="fill:#EFEFEF;" width="33.001" height="16.499"/>
<path style="fill:#262E37;" d="M511.972,487.25v-3.837h-16.517v3.837c0,6.3-2.391,12.654-7.217,17.487
	c-2.721,2.691-5.883,4.662-9.272,5.814c2.673,0.95,5.445,1.449,8.246,1.449c6.354,0,12.644-2.432,17.536-7.263
	C509.573,499.912,511.972,493.55,511.972,487.25z"/>
<g>
	<path style="fill:#3F4A5A;" d="M495.455,487.25v-3.837h-33.001v3.837c0,6.3,2.437,12.654,7.263,17.487
		c2.683,2.675,5.855,4.613,9.247,5.814c3.389-1.149,6.554-3.123,9.272-5.814C493.066,499.904,495.455,493.55,495.455,487.25z"/>
	<path style="fill:#3F4A5A;" d="M19.2,512c-4.91,0-9.823-1.871-13.573-5.627C1.874,502.628,0,497.713,0,492.8V181.673h429.42V492.8
		c0,4.913-1.871,9.828-5.624,13.573c-3.748,3.756-8.655,5.627-13.576,5.627H19.2z"/>
</g>
<path style="fill:#F67656;" d="M297.293,274.373c0,3.517-2.883,6.4-6.4,6.4h-53.268c-3.517,0-6.4-2.883-6.4-6.4v-53.268
	c0-3.52,2.883-6.4,6.4-6.4h53.268c3.517,0,6.4,2.88,6.4,6.4V274.373z"/>
<g>
	<path style="fill:#FFFFFF;" d="M99.098,373.468c0,3.52-2.877,6.4-6.4,6.4H39.434c-3.523,0-6.4-2.88-6.4-6.4V320.2
		c0-3.517,2.877-6.4,6.4-6.4h53.263c3.523,0,6.4,2.883,6.4,6.4V373.468z"/>
	<path style="fill:#FFFFFF;" d="M198.193,373.468c0,3.52-2.877,6.4-6.4,6.4h-53.258c-3.523,0-6.4-2.88-6.4-6.4V320.2
		c0-3.517,2.877-6.4,6.4-6.4h53.258c3.523,0,6.4,2.883,6.4,6.4L198.193,373.468L198.193,373.468z"/>
	<path style="fill:#FFFFFF;" d="M99.098,472.563c0,3.52-2.877,6.4-6.4,6.4H39.434c-3.523,0-6.4-2.88-6.4-6.4V419.3
		c0-3.517,2.877-6.4,6.4-6.4h53.263c3.523,0,6.4,2.883,6.4,6.4V472.563z"/>
	<path style="fill:#FFFFFF;" d="M198.193,472.563c0,3.52-2.877,6.4-6.4,6.4h-53.258c-3.523,0-6.4-2.88-6.4-6.4V419.3
		c0-3.517,2.877-6.4,6.4-6.4h53.258c3.523,0,6.4,2.883,6.4,6.4L198.193,472.563L198.193,472.563z"/>
	<path style="fill:#FFFFFF;" d="M396.393,274.373c0,3.517-2.883,6.4-6.4,6.4h-53.266c-3.517,0-6.4-2.883-6.4-6.4v-53.268
		c0-3.52,2.883-6.4,6.4-6.4h53.266c3.517,0,6.4,2.88,6.4,6.4V274.373z"/>
	<path style="fill:#FFFFFF;" d="M297.293,373.468c0,3.52-2.883,6.4-6.4,6.4h-53.268c-3.517,0-6.4-2.88-6.4-6.4V320.2
		c0-3.517,2.883-6.4,6.4-6.4h53.268c3.517,0,6.4,2.883,6.4,6.4V373.468z"/>
	<path style="fill:#FFFFFF;" d="M396.393,373.468c0,3.52-2.883,6.4-6.4,6.4h-53.266c-3.517,0-6.4-2.88-6.4-6.4V320.2
		c0-3.517,2.883-6.4,6.4-6.4h53.266c3.517,0,6.4,2.883,6.4,6.4V373.468z"/>
	<path style="fill:#FFFFFF;" d="M297.293,472.563c0,3.52-2.883,6.4-6.4,6.4h-53.268c-3.517,0-6.4-2.88-6.4-6.4V419.3
		c0-3.517,2.883-6.4,6.4-6.4h53.268c3.517,0,6.4,2.883,6.4,6.4V472.563z"/>
	<path style="fill:#FFFFFF;" d="M396.393,472.563c0,3.52-2.883,6.4-6.4,6.4h-53.266c-3.517,0-6.4-2.88-6.4-6.4V419.3
		c0-3.517,2.883-6.4,6.4-6.4h53.266c3.517,0,6.4,2.883,6.4,6.4V472.563z"/>
</g>
<rect y="165.171" style="fill:#EFEFEF;" width="429.414" height="16.509"/>
<path style="fill:#3F4A5A;" d="M0,165.164V19.2c0-4.913,1.876-9.83,5.627-13.573C9.375,1.871,14.29,0,19.2,0h391.02
	c4.92,0,9.828,1.871,13.576,5.627c3.753,3.74,5.624,8.658,5.624,13.573v145.964H0z"/>
<path style="fill:#9DE8F7;" d="M396.393,125.727c0,3.517-2.883,6.4-6.4,6.4H39.434c-3.523,0-6.4-2.883-6.4-6.4v-86.3
	c0-3.52,2.877-6.4,6.4-6.4h350.559c3.517,0,6.4,2.88,6.4,6.4V125.727z"/>
<rect x="33.034" y="222.95" style="fill:#262E37;" width="165.171" height="49.549"/>
<rect x="41.293" y="231.219" style="fill:#333C49;" width="148.659" height="33.027"/>
<g>
	<rect x="137.638" y="231.219" style="fill:#262E37;" width="8.256" height="33.027"/>
	<rect x="85.325" y="231.219" style="fill:#262E37;" width="8.253" height="33.027"/>
</g>
<g>
</g>
<g>
</g>
<g>
</g>
<g>
</g>
<g>
</g>
<g>
</g>
<g>
</g>
<g>
</g>
<g>
</g>
<g>
</g>
<g>
</g>
<g>
</g>
<g>
</g>
<g>
</g>
<g>
</g>
</svg>
