<svg xmlns="http://www.w3.org/2000/svg" viewBox="0 0 396.21 224.02"><defs><style>.cls-1{fill:#162f3f;}.cls-2{fill:#395877;}.cls-3{fill:#274f75;}.cls-4{fill:#4d7dbf;}</style></defs><title>Asset 5</title><g id="Layer_2" data-name="Layer 2"><g id="Layer_1-2" data-name="Layer 1"><path class="cls-1" d="M153.88,115.33c0-.16,0-.33,0-.49s0-.33,0-.49c0-29-12.43-56.18-35-76.62C91,12.63,58,7.94,29.42,6.68h-.56c-5.48,0-9.95,3.57-9.95,8V50.91H93.77c7.46,0,13.56,5.4,13.56,12V167.78c0,6.6-6.1,12-13.56,12H18.91v36.29c0,4.39,4.46,8,9.95,8h.56C58,222.74,91,218.06,118.89,192.95c22.58-20.44,35-47.65,35-76.62,0-.16,0-.33,0-.49S153.88,115.52,153.88,115.33Z"/><path class="cls-2" d="M201.81,173.1c-11.5,0-20.26-2.62-26.77-8-7.11-5.72-10.73-14-10.73-24.72,0-23.53,17.77-31.88,33-31.88,14.25,0,30.89,7.78,30.89,29.72h0c0,3.73-3.43,6.75-7.64,6.75H185.89a1.27,1.27,0,0,0-1.35,1.35c1.42,11,8.16,13.28,17.78,13.28a83.09,83.09,0,0,0,16.6-1.86,7.15,7.15,0,0,1,1.46-.15c3.46,0,6.28,2.49,6.28,5.55v2.24a5.7,5.7,0,0,1-4.71,5.38A93.87,93.87,0,0,1,201.81,173.1Zm5.14-41.65a1.24,1.24,0,0,0,1.29-1.55c-1.31-4-4.17-7.89-10.32-7.89-5.17,0-9.18,2.75-11.48,7.8a1.23,1.23,0,0,0,1.26,1.64Z"/><path class="cls-2" d="M312.37,171.83a2.81,2.81,0,0,1-3-2.62v-37c0-7.79-.81-10.22-5.89-10.22-5.7,0-9.45,3.66-11.68,7a2.31,2.31,0,0,0-.39,1.36c0,1.26,0,2.52,0,3.78v35.08a2.81,2.81,0,0,1-3,2.62H275.88a2.81,2.81,0,0,1-3-2.62v-37c0-3.5,0-6.81-1.68-8.75a5.65,5.65,0,0,0-4.33-1.47c-5.71,0-9.5,3.71-11.76,7.06a2.34,2.34,0,0,0-.4,1.32v38.83a2.81,2.81,0,0,1-3,2.62H239a2.81,2.81,0,0,1-3-2.62V112.39a2.81,2.81,0,0,1,3-2.62h12.77a2.81,2.81,0,0,1,3,2.62v.38c0,.12.13.13.14.13A31.18,31.18,0,0,1,271,108.5c6.29,0,11.37,1.75,14.86,5.1a3.21,3.21,0,0,0,1.83.88h0a3.3,3.3,0,0,0,2.25-.55,31,31,0,0,1,17.68-5.43c8.92,0,15,3.23,18.05,9.6,2.4,5,2.4,10.84,2.39,15.54v35.57a2.81,2.81,0,0,1-3,2.62Z"/><path class="cls-2" d="M359.85,192.25a8,8,0,0,1-7.69-5,6.68,6.68,0,0,1,.25-4.81l4.36-10.51a1.17,1.17,0,0,0,0-.91l-22.16-51.59a6.64,6.64,0,0,1,2.58-8.15,9.16,9.16,0,0,1,5.22-1.49h1.7a8.13,8.13,0,0,1,7.5,4.55l13.7,31.36a1.32,1.32,0,0,0,2.36,0l13-31.23a8.09,8.09,0,0,1,7.55-4.66,8.4,8.4,0,0,1,6.59,3,6.43,6.43,0,0,1,1,6.52L367.4,187.59A8.09,8.09,0,0,1,359.85,192.25Z"/><path class="cls-2" d="M5.76,165.66V65c0-2.64,2.42-4.78,5.4-4.78H89.31c3,0,5.4,2.14,5.4,4.78V77.11c0,2.64-2.42,4.78-5.4,4.78H36c-3,0-5.4,2.14-5.4,4.78v15.09c0,2.64,2.42,4.78,5.4,4.78h40.9c3,0,5.4,2.14,5.4,4.78v8c0,2.64-2.42,4.78-5.4,4.78H36c-3,0-5.4,2.14-5.4,4.78v15c0,2.64,2.42,4.78,5.4,4.78H91.34c3,0,5.4,2.14,5.4,4.78v12.23c0,2.64-2.42,4.78-5.4,4.78H11.16C8.18,170.43,5.76,168.29,5.76,165.66Z"/><path class="cls-3" d="M148.12,108.67c0-.16,0-.33,0-.49s0-.33,0-.49c0-29-12.43-56.18-35-76.62C85.21,6,52.23,1.28,23.66,0H23.1c-5.48,0-9.95,3.57-9.95,8V44.24H88c7.46,0,13.56,5.4,13.56,12V161.11c0,6.6-6.1,12-13.56,12H13.15V209.4c0,4.39,4.46,8,9.95,8h.56c28.58-1.27,61.55-5.95,89.48-31.06,22.58-20.44,35-47.65,35-76.62,0-.16,0-.33,0-.49S148.12,108.85,148.12,108.67Z"/><path class="cls-4" d="M196.06,166.44c-11.5,0-20.26-2.62-26.77-8-7.11-5.72-10.73-14-10.73-24.72,0-23.53,17.77-31.88,33-31.88,14.25,0,30.89,7.78,30.89,29.72h0c0,3.73-3.43,6.75-7.64,6.75H180.13a1.27,1.27,0,0,0-1.35,1.35c1.42,11,8.16,13.28,17.78,13.28a83.09,83.09,0,0,0,16.6-1.86,7.15,7.15,0,0,1,1.46-.15c3.46,0,6.28,2.49,6.28,5.55v2.24a5.7,5.7,0,0,1-4.71,5.38A93.87,93.87,0,0,1,196.06,166.44Zm5.14-41.65a1.24,1.24,0,0,0,1.29-1.55c-1.31-4-4.17-7.89-10.32-7.89-5.17,0-9.18,2.75-11.48,7.8a1.23,1.23,0,0,0,1.26,1.64Z"/><path class="cls-4" d="M306.62,165.17a2.81,2.81,0,0,1-3-2.62v-37c0-7.79-.81-10.22-5.89-10.22-5.7,0-9.45,3.66-11.68,7a2.31,2.31,0,0,0-.39,1.36c0,1.26,0,2.52,0,3.78v35.08a2.81,2.81,0,0,1-3,2.62H270.12a2.81,2.81,0,0,1-3-2.62v-37c0-3.5,0-6.81-1.68-8.75a5.65,5.65,0,0,0-4.33-1.47c-5.71,0-9.5,3.71-11.76,7.06a2.34,2.34,0,0,0-.4,1.32v38.83a2.81,2.81,0,0,1-3,2.62H233.25a2.81,2.81,0,0,1-3-2.62V105.72a2.81,2.81,0,0,1,3-2.62H246a2.81,2.81,0,0,1,3,2.62v.38c0,.12.13.13.14.13a31.18,31.18,0,0,1,16.16-4.4c6.29,0,11.37,1.75,14.86,5.1a3.21,3.21,0,0,0,1.83.88h0a3.3,3.3,0,0,0,2.25-.55,31,31,0,0,1,17.68-5.43c8.92,0,15,3.23,18.05,9.6,2.4,5,2.4,10.84,2.39,15.54v35.57a2.81,2.81,0,0,1-3,2.62Z"/><path class="cls-4" d="M354.09,185.58a8,8,0,0,1-7.69-5,6.68,6.68,0,0,1,.25-4.81L351,165.25a1.17,1.17,0,0,0,0-.91l-22.16-51.59a6.64,6.64,0,0,1,2.58-8.15,9.16,9.16,0,0,1,5.22-1.49h1.7a8.13,8.13,0,0,1,7.5,4.55L359.55,139a1.32,1.32,0,0,0,2.36,0l13-31.23a8.09,8.09,0,0,1,7.55-4.66,8.4,8.4,0,0,1,6.59,3,6.43,6.43,0,0,1,1,6.52l-28.31,68.25A8.09,8.09,0,0,1,354.09,185.58Z"/><path class="cls-4" d="M0,159V58.37c0-2.64,2.42-4.78,5.4-4.78H83.55c3,0,5.4,2.14,5.4,4.78V70.45c0,2.64-2.42,4.78-5.4,4.78H30.27c-3,0-5.4,2.14-5.4,4.78V95.09c0,2.64,2.42,4.78,5.4,4.78h40.9c3,0,5.4,2.14,5.4,4.78v8c0,2.64-2.42,4.78-5.4,4.78H30.27c-3,0-5.4,2.14-5.4,4.78v15c0,2.64,2.42,4.78,5.4,4.78H85.58c3,0,5.4,2.14,5.4,4.78V159c0,2.64-2.42,4.78-5.4,4.78H5.4C2.42,163.77,0,161.63,0,159Z"/></g></g></svg>