<?xml version="1.0" encoding="iso-8859-1"?>
<!-- Generator: Adobe Illustrator 19.0.0, SVG Export Plug-In . SVG Version: 6.00 Build 0)  -->
<svg version="1.1" id="Layer_1" xmlns="http://www.w3.org/2000/svg" xmlns:xlink="http://www.w3.org/1999/xlink" x="0px" y="0px"
	 viewBox="0 0 512.008 512.008" style="enable-background:new 0 0 512.008 512.008;" xml:space="preserve">
<path style="fill:#43D3E8;" d="M256.003,0c-96.699,0-175.37,78.671-175.37,175.368c0,49.078,20.844,96.282,57.183,129.505
	l0.317,0.279c1.111,0.922,2.23,1.905,3.364,2.898l1.096,0.957c24.991,22.784,39.322,55.186,39.322,88.893h148.165
	c0-33.772,14.356-66.168,39.409-88.893c1.464-1.331,2.941-2.665,4.672-4.134c36.36-33.229,57.216-80.435,57.216-129.505
	C431.375,78.671,352.701,0,256.003,0z"/>
<g>
	<path style="fill:#FFFFFF;" d="M164.38,83.738L151.452,70.81c27.976-27.973,65.103-43.382,104.55-43.382v18.286
		C221.443,45.714,188.902,59.218,164.38,83.738z"/>
	<polygon style="fill:#FFFFFF;" points="243.203,258.529 224.284,212.664 201.144,212.664 201.144,194.378 236.521,194.378 
		243.203,210.578 268.803,148.513 287.721,194.378 310.861,194.378 310.861,212.664 275.484,212.664 268.803,196.465 	"/>
</g>
<g>
	
		<rect x="290.102" y="217.651" transform="matrix(-0.9624 -0.2716 0.2716 -0.9624 503.1858 688.6221)" style="fill:#242D3C;" width="18.288" height="183.678"/>
	
		<rect x="120.913" y="300.327" transform="matrix(-0.2716 -0.9624 0.9624 -0.2716 -27.3022 598.2791)" style="fill:#242D3C;" width="183.678" height="18.288"/>
	<path style="fill:#242D3C;" d="M182.861,230.95c-15.124,0-27.428-12.303-27.428-27.428c0-15.124,12.303-27.428,27.428-27.428
		c15.124,0,27.428,12.301,27.428,27.425C210.289,218.644,197.985,230.95,182.861,230.95z M182.861,194.378
		c-5.043,0-9.144,4.101-9.144,9.142c0,5.041,4.101,9.142,9.144,9.142c5.043,0,9.142-4.101,9.142-9.142
		C192.003,198.479,187.901,194.378,182.861,194.378z"/>
	<path style="fill:#242D3C;" d="M329.144,230.95c-15.124,0-27.428-12.303-27.428-27.428c0-15.124,12.303-27.428,27.428-27.428
		s27.43,12.303,27.43,27.428C356.575,218.647,344.269,230.95,329.144,230.95z M329.144,194.378c-5.043,0-9.142,4.101-9.142,9.142
		c0,5.041,4.101,9.142,9.142,9.142s9.142-4.101,9.142-9.142C338.286,198.479,334.188,194.378,329.144,194.378z"/>
	<rect x="311.811" y="397.901" style="fill:#242D3C;" width="18.286" height="69.972"/>
	<rect x="181.916" y="397.901" style="fill:#242D3C;" width="18.286" height="69.972"/>
	<rect x="168.532" y="388.762" style="fill:#242D3C;" width="174.925" height="18.286"/>
	<rect x="168.532" y="423.731" style="fill:#242D3C;" width="174.925" height="18.286"/>
	<rect x="168.532" y="458.726" style="fill:#242D3C;" width="174.925" height="18.289"/>
	<rect x="217.142" y="493.722" style="fill:#242D3C;" width="77.76" height="18.286"/>
</g>
<g>
</g>
<g>
</g>
<g>
</g>
<g>
</g>
<g>
</g>
<g>
</g>
<g>
</g>
<g>
</g>
<g>
</g>
<g>
</g>
<g>
</g>
<g>
</g>
<g>
</g>
<g>
</g>
<g>
</g>
</svg>
