<?xml version="1.0" encoding="iso-8859-1"?>
<!-- Generator: Adobe Illustrator 19.0.0, SVG Export Plug-In . SVG Version: 6.00 Build 0)  -->
<svg version="1.1" id="Layer_1" xmlns="http://www.w3.org/2000/svg" xmlns:xlink="http://www.w3.org/1999/xlink" x="0px" y="0px"
	 viewBox="0 0 512 512" style="enable-background:new 0 0 512 512;" xml:space="preserve">
<path style="fill:#242D3C;" d="M485.517,344.274H26.483V44.137h459.036v300.137H485.517z M44.137,326.62h423.726V61.793H44.137
	V326.62z"/>
<rect x="63.56" y="81.213" style="fill:#43D3E8;" width="384.87" height="225.997"/>
<g>
	<path style="fill:#FFFFFF;" d="M147.482,233.244H98.867c-4.877,0-8.827-3.953-8.827-8.827v-59.679c0-4.874,3.95-8.827,8.827-8.827
		h48.614v17.654h-39.785v42.025h39.785V233.244z"/>
	<rect x="90.035" y="185.754" style="fill:#FFFFFF;" width="37.548" height="17.654"/>
	<path style="fill:#FFFFFF;" d="M341.074,233.244h-9.94c-6.336,0-12.301-2.465-16.791-6.94c-4.498-4.513-6.956-10.476-6.956-16.806
		v-29.834c0-6.318,2.458-12.275,6.92-16.776c4.534-4.513,10.493-6.976,16.824-6.976h9.94c6.354,0,12.321,2.468,16.801,6.956
		c4.483,4.493,6.95,10.455,6.95,16.799v8.827h-17.654v-8.827c0-1.636-0.635-3.169-1.789-4.324c-1.137-1.142-2.67-1.772-4.306-1.772
		h-9.94c-1.633,0-3.169,0.64-4.332,1.795c-1.121,1.132-1.759,2.673-1.759,4.303v29.834c0,1.631,0.635,3.169,1.789,4.326
		c1.129,1.132,2.668,1.766,4.301,1.766h9.94c1.636,0,3.167-0.632,4.306-1.772c1.157-1.155,1.789-2.685,1.789-4.321v-8.827h17.654
		v8.827c0,6.354-2.473,12.321-6.956,16.801C353.403,230.774,347.435,233.244,341.074,233.244z"/>
	<path style="fill:#FFFFFF;" d="M270.825,233.244h-17.656v-54.582c0-2.811-2.286-5.097-5.097-5.097s-5.094,2.286-5.094,5.097v54.582
		h-17.654v-54.582c0-12.544,10.204-22.753,22.748-22.753c12.544,0,22.753,10.207,22.753,22.753V233.244z"/>
	<path style="fill:#FFFFFF;" d="M298.67,233.244h-17.654v-54.582c0-2.811-2.286-5.097-5.089-5.097c-2.816,0-5.099,2.286-5.099,5.097
		v54.582h-17.656v-54.582c0-12.544,10.212-22.753,22.756-22.753c12.539,0,22.746,10.207,22.746,22.753v54.582H298.67z"/>
	<path style="fill:#FFFFFF;" d="M421.957,173.565h-39.905c-4.877,0-8.827-3.95-8.827-8.827v-11.656
		c0-5.494,2.132-10.642,6.003-14.505c3.871-3.86,9.014-5.993,14.479-5.993h7.764c0.535,0,1.318-0.141,1.999-0.824
		c0.719-0.724,0.829-1.569,0.829-2.007c0-0.538-0.146-1.321-0.84-2.02c-0.671-0.666-1.454-0.812-1.989-0.812h-7.764
		c-0.538,0-1.326,0.146-2.01,0.832c-0.678,0.673-0.817,1.459-0.817,1.999h-17.654c0-5.486,2.13-10.634,6.001-14.5
		c3.876-3.863,9.016-5.985,14.482-5.985h7.764c5.471,0,10.611,2.127,14.479,5.985c3.876,3.894,6.006,9.037,6.006,14.5
		c0,5.468-2.13,10.611-6.001,14.487c-3.868,3.868-9.014,6.001-14.484,6.001h-7.764c-0.535,0-1.316,0.146-2.007,0.837
		c-0.681,0.676-0.819,1.462-0.819,2.004v2.826h31.078v17.656H421.957z"/>
	<rect x="157.67" y="172.621" style="fill:#FFFFFF;" width="57.441" height="17.654"/>
	<rect x="157.67" y="200.474" style="fill:#FFFFFF;" width="57.441" height="17.654"/>
</g>
<g>
	<path style="fill:#242D3C;" d="M512,379.584H0V326.62h512V379.584z M17.654,361.93h476.69v-17.654H17.654V361.93z"/>
	<path style="fill:#242D3C;" d="M406.036,467.863h-52.964V361.93h52.964V467.863z M370.726,450.207h17.654v-70.623h-17.654V450.207z
		"/>
	<path style="fill:#242D3C;" d="M158.927,467.863h-52.964V361.93h52.964C158.927,361.93,158.927,467.863,158.927,467.863z
		 M123.617,450.207h17.654v-70.623h-17.654V450.207z"/>
	<rect x="150.093" y="406.067" style="fill:#242D3C;" width="211.789" height="17.654"/>
</g>
<g>
</g>
<g>
</g>
<g>
</g>
<g>
</g>
<g>
</g>
<g>
</g>
<g>
</g>
<g>
</g>
<g>
</g>
<g>
</g>
<g>
</g>
<g>
</g>
<g>
</g>
<g>
</g>
<g>
</g>
</svg>
