<?xml version="1.0" encoding="iso-8859-1"?>
<!-- Generator: Adobe Illustrator 19.0.0, SVG Export Plug-In . SVG Version: 6.00 Build 0)  -->
<svg version="1.1" id="Layer_1" xmlns="http://www.w3.org/2000/svg" xmlns:xlink="http://www.w3.org/1999/xlink" x="0px" y="0px"
	 viewBox="0 0 512 512" style="enable-background:new 0 0 512 512;" xml:space="preserve">
<g>
	<path style="fill:#242D3C;" d="M256,512c-77.962,0-141.389-63.424-141.389-141.386c0-63.478,41.69-118.449,102.139-135.813v-98.944
		h78.5v98.947c60.452,17.362,102.139,72.328,102.139,135.811C397.389,448.576,333.962,512,256,512z M232.75,151.857v95.414
		l-6.131,1.472c-56.53,13.581-96.008,63.695-96.008,121.871C130.611,439.752,186.862,496,256,496s125.389-56.251,125.389-125.386
		c0-58.184-39.48-108.293-96.01-121.869l-6.131-1.472v-95.416H232.75z"/>
	<path style="fill:#242D3C;" d="M310.884,151.862H201.119v-47.281h109.765L310.884,151.862L310.884,151.862z M217.119,135.862
		h77.765v-15.281h-77.765V135.862z"/>
	<rect x="224.742" y="208.64" style="fill:#242D3C;" width="19.382" height="16"/>
	<rect x="224.742" y="184.371" style="fill:#242D3C;" width="19.382" height="16"/>
	<rect x="224.742" y="160.102" style="fill:#242D3C;" width="19.382" height="16"/>
	<path style="fill:#242D3C;" d="M345.011,345.234c-7.38-25.861-25.62-47.196-50.048-58.54l6.743-14.515
		c28.641,13.307,50.035,38.333,58.693,68.659L345.011,345.234z"/>
	<path style="fill:#242D3C;" d="M280.22,281.275c-7.798-2.135-15.946-3.22-24.22-3.22v-16c9.7,0,19.272,1.275,28.444,3.789
		L280.22,281.275z"/>
</g>
<g>
	<path style="fill:#43D3E8;" d="M147.635,370.614c0,59.766,48.596,108.393,108.365,108.393c59.766,0,108.37-48.627,108.37-108.393
		H147.635z"/>
	<path style="fill:#43D3E8;" d="M233.377,374.269c0,12.531-10.156,22.682-22.676,22.682c-12.557,0-22.71-10.153-22.71-22.682
		c0-12.521,10.153-22.674,22.71-22.674C223.222,351.595,233.377,361.751,233.377,374.269z"/>
	<path style="fill:#43D3E8;" d="M282.24,338.01c0,6.884-5.617,12.495-12.5,12.495c-6.902,0-12.521-5.609-12.521-12.495
		c0-6.912,5.619-12.516,12.521-12.516C276.623,325.494,282.24,331.098,282.24,338.01z"/>
</g>
<g>
	<path style="fill:#FFFFFF;" d="M226.081,417.526c0,7.754-6.3,14.07-14.062,14.07c-7.772,0-14.072-6.315-14.072-14.07
		c0-7.762,6.3-14.07,14.072-14.07C219.781,403.456,226.081,409.761,226.081,417.526z"/>
	<path style="fill:#FFFFFF;" d="M316.26,400.42c0,3.453-2.826,6.241-6.254,6.241c-3.456,0-6.275-2.79-6.275-6.241
		c0-3.459,2.821-6.254,6.275-6.254C313.436,394.166,316.26,396.961,316.26,400.42z"/>
	<path style="fill:#FFFFFF;" d="M289.26,438.303c0,6.026-4.905,10.929-10.934,10.929c-6.049,0-10.947-4.9-10.947-10.929
		c0-6.052,4.897-10.952,10.947-10.952C284.355,427.351,289.26,432.251,289.26,438.303z"/>
</g>
<g>
	<path style="fill:#242D3C;" d="M175.099,106.112c-10.22,0-18.532-8.31-18.532-18.524c0-10.222,8.312-18.54,18.532-18.54
		s18.532,8.317,18.532,18.54C193.631,97.802,185.318,106.112,175.099,106.112z M175.099,85.048c-1.398,0-2.532,1.139-2.532,2.54
		c0,1.393,1.134,2.524,2.532,2.524s2.532-1.132,2.532-2.524C177.631,86.188,176.497,85.048,175.099,85.048z"/>
	<path style="fill:#242D3C;" d="M319.247,95.58c-12.71,0-23.048-10.342-23.048-23.053c0-12.708,10.337-23.05,23.048-23.05
		c12.713,0,23.055,10.342,23.055,23.05C342.303,85.24,331.96,95.58,319.247,95.58z M319.247,65.477c-3.886,0-7.048,3.162-7.048,7.05
		c0,3.891,3.162,7.053,7.048,7.053c3.891,0,7.055-3.162,7.055-7.053C326.303,68.641,323.139,65.477,319.247,65.477z"/>
	<path style="fill:#242D3C;" d="M258.35,62.262c-17.165,0-31.132-13.97-31.132-31.14C227.218,13.962,241.185,0,258.35,0
		c17.17,0,31.135,13.962,31.135,31.122C289.485,48.294,275.52,62.262,258.35,62.262z M258.35,16
		c-8.343,0-15.132,6.784-15.132,15.122c0,8.351,6.787,15.14,15.132,15.14c8.346,0,15.135-6.789,15.135-15.14
		C273.485,22.784,266.696,16,258.35,16z"/>
</g>
<g>
</g>
<g>
</g>
<g>
</g>
<g>
</g>
<g>
</g>
<g>
</g>
<g>
</g>
<g>
</g>
<g>
</g>
<g>
</g>
<g>
</g>
<g>
</g>
<g>
</g>
<g>
</g>
<g>
</g>
</svg>
