<?xml version="1.0" encoding="iso-8859-1"?>
<!-- Generator: Adobe Illustrator 19.0.0, SVG Export Plug-In . SVG Version: 6.00 Build 0)  -->
<svg version="1.1" id="Layer_1" xmlns="http://www.w3.org/2000/svg" xmlns:xlink="http://www.w3.org/1999/xlink" x="0px" y="0px"
	 viewBox="0 0 512 512" style="enable-background:new 0 0 512 512;" xml:space="preserve">
<g>
	<path style="fill:#FFBCAB;" d="M483.262,87.7c0.932-0.953,1.604-2.129,1.951-3.416l14.438-53.682
		c0.807-2.292-2.049-4.092-3.768-2.373l-34.819,34.611l-10.677,10.677l23.449,23.814L483.262,87.7z"/>
	<path style="fill:#FFBCAB;" d="M435.612,316.47h-27.045c-14.304,0-26.008-11.703-26.008-26.008v-16.642
		c0-14.304,11.703-26.008,26.008-26.008h27.045c14.304,0,26.008,11.703,26.008,26.008v16.642
		C461.619,304.767,449.916,316.47,435.612,316.47z"/>
	<polygon style="fill:#FFBCAB;" points="258.984,484.363 227.208,480.172 227.208,335.233 258.984,335.233 	"/>
	<path style="fill:#FFBCAB;" d="M61.756,35.728l27.56-13.208l34.997,88.304l0,0l146.571,64.339l-70.175,25.3l-107.29-61.296
		c-1.434-0.819-2.49-2.165-2.948-3.75L61.756,35.728z"/>
	<polygon style="fill:#FFBCAB;" points="357.405,480.935 396.806,512 324.518,512 324.331,481.068 324.434,470.38 320.434,444.29 
		356.076,464.099 	"/>
</g>
<path style="fill:#52A2E7;" d="M391.935,249.005l27.395-95.987l63.617-64.997l-23.533-23.533l-71.718,71.596l-0.571,1.059
	l-22.997,77.737l-107.254-45.867l2.111,90.564l80.774,43.728l-25.065,78.674c-0.515,1.618-0.687,3.324-0.502,5.011l10.242,94.005
	l33.073-0.133l-8.523-99.891l0.259-0.026l32.077-94.746l0,0l0,0l1.241-3.665l-0.178-0.059l8.311-29.119
	C391.24,251.927,391.654,250.471,391.935,249.005z"/>
<g>
	<path style="fill:#7CD8A4;" d="M227.208,477.749l63.995,12.788c6.671,1.333,11.481,7.18,11.503,13.983l0.024,7.408l-75.436-0.023
		L227.208,477.749z"/>
	<path style="fill:#7CD8A4;" d="M89.316,22.52L32.489,50.13c-5.802,2.818-12.795,0.795-16.195-4.686l-4.084-6.584L75.345,0
		L89.316,22.52z"/>
</g>
<path style="fill:#781900;" d="M435.723,248.293l-18.685-0.06c2.87,15.483,10.383,48.214,25.287,67.819
	c11.032-2.98,19.229-13.08,19.268-25.025l0.054-16.642C461.692,260.081,450.027,248.339,435.723,248.293z"/>
<path style="fill:#315591;" d="M270.885,175.164L270.885,175.164l-92.704-40.693l-30.678,35.595l25.862,14.775
	c19.982,21.054,39.95,47.549,45.288,73.636l8.556,100.878h31.776l14.518-113.872L270.885,175.164z"/>
<g style="opacity:0.16;">
	<path style="fill:#315591;" d="M374.276,306.973l-116.151-83.796l0.849,36.401l80.774,43.728l-25.065,78.674
		c-0.515,1.618-0.687,3.324-0.502,5.011l10.242,94.005l33.073-0.133l-8.523-99.891l0.259-0.026L374.276,306.973z"/>
</g>
<rect x="227.212" y="359.351" style="fill:#FF9478;" width="31.776" height="10.314"/>
<g>
</g>
<g>
</g>
<g>
</g>
<g>
</g>
<g>
</g>
<g>
</g>
<g>
</g>
<g>
</g>
<g>
</g>
<g>
</g>
<g>
</g>
<g>
</g>
<g>
</g>
<g>
</g>
<g>
</g>
</svg>
