<?xml version="1.0" encoding="utf-8"?>
<!-- Generator: Adobe Illustrator 20.1.0, SVG Export Plug-In . SVG Version: 6.00 Build 0)  -->
<svg version="1.1" id="Layer_1" xmlns="http://www.w3.org/2000/svg" xmlns:xlink="http://www.w3.org/1999/xlink" x="0px" y="0px"
	 viewBox="0 0 837.6 841.9" style="enable-background:new 0 0 837.6 841.9;" xml:space="preserve">
<style type="text/css">
	.st0{fill:#163756;}
	.st1{fill:#6294B5;}
</style>
<path class="st0" d="M429,840.1L429,840.1c-225.7,0-408.6-182.9-408.6-408.6v0C20.4,205.8,203.3,22.9,429,22.9h0
	c225.7,0,408.6,182.9,408.6,408.6v0C837.6,657.1,654.6,840.1,429,840.1z"/>
<path class="st1" d="M408.6,817.2L408.6,817.2C182.9,817.2,0,634.3,0,408.6v0C0,182.9,182.9,0,408.6,0h0
	c225.7,0,408.6,182.9,408.6,408.6v0C817.2,634.3,634.3,817.2,408.6,817.2z"/>
<g>
	<path class="st0" d="M503.8,472.5c2.7,0,5.4-2.7,5.4-6.1V342.7c0-2.7-2-4.8-4.8-4.8h-45.8v134.6H503.8z"/>
	<path class="st0" d="M541.5,519c-4.4,3.8-12.1,4-14.2,4l-126.9-0.2c-2,0-4.1-2-4.1-4.8v-40.1c0-3.4,2-5.4,4.8-5.4h24.7V337.9h-22.7
		c-2,0-4.8-2-4.8-4.8v-38.1c0-2.7,2-4.8,4.8-4.8h80.6h43.5c1.7,0,9.2-0.2,13.5,3.3c6.1,5,9.2,14,9.2,11.6l-1.4-144
		c0-2-0.6-3.8-1.8-5.1c-1.2-1.4-2.9-2.3-5-2.3h-58H276.1c-2,0-3.9,0.8-5.4,2.1c-2.1,1.8-3.5,4.4-3.5,6.7v480.3c0,1.1-0.5,11,4,15.9
		c4.5,4.9,14.1,4.7,15.2,4.7h256c4.1,0,7.5-3.4,7.5-7.5V506.7C550,504.8,547.4,513.8,541.5,519z"/>
</g>
</svg>
