<?xml version="1.0" encoding="iso-8859-1"?>
<!-- Generator: Adobe Illustrator 19.0.0, SVG Export Plug-In . SVG Version: 6.00 Build 0)  -->
<svg version="1.1" id="Layer_1" xmlns="http://www.w3.org/2000/svg" xmlns:xlink="http://www.w3.org/1999/xlink" x="0px" y="0px"
	 viewBox="0 0 512 512" style="enable-background:new 0 0 512 512;" xml:space="preserve">
<path style="fill:#FFB64D;" d="M401.92,184.947v75.233c0,28.85-23.395,52.245-52.245,52.245h-187.35
	c-28.85,0-52.245-23.395-52.245-52.245V153.757c0-80.593,65.327-145.92,145.92-145.92c40.291,0,76.779,16.332,103.184,42.736
	c24.848,24.848,40.772,58.608,42.569,96.089L401.92,184.947z"/>
<path style="fill:#4DD0E2;" d="M381.388,504.163H130.612v-92.996c0-69.25,56.138-125.388,125.388-125.388l0,0
	c69.25,0,125.388,56.138,125.388,125.388V504.163z"/>
<g>
	<path style="fill:#FFFFFF;" d="M338.171,316.458L256,398.629l-82.171-82.171c22.006-19.111,50.73-30.678,82.171-30.678
		S316.165,297.347,338.171,316.458z"/>
	<path style="fill:#FFFFFF;" d="M256,269.061L256,269.061c-9.003,0-17.75-1.092-26.122-3.138v39.187
		c0,14.427,11.696,26.122,26.122,26.122c14.427,0,26.122-11.696,26.122-26.122v-39.187C273.75,267.969,265.003,269.061,256,269.061z
		"/>
	<path style="fill:#FFFFFF;" d="M365.714,121.01v38.337c0,60.594-49.121,109.714-109.714,109.714s-109.714-49.121-109.714-109.714
		v-38.296l132.263-50.688l0.366,0.209L365.714,121.01z"/>
</g>
<path style="fill:#4DD0E2;" d="M166.139,189.127h-25.078c-10.387,0-18.808-8.421-18.808-18.808l0,0
	c0-10.387,8.421-18.808,18.808-18.808h25.078V189.127z"/>
<circle cx="205.322" cy="173.976" r="13.061"/>
<circle cx="306.678" cy="173.976" r="13.061"/>
<path d="M151.446,303.237c-19.742-4.961-33.53-22.666-33.53-43.057v-55.892h-15.673v55.892c0,27.586,18.662,51.544,45.383,58.257
	L151.446,303.237z"/>
<path d="M394.083,184.947v75.233c0,20.388-13.788,38.098-33.533,43.068l3.826,15.2c26.718-6.727,45.38-30.687,45.38-58.268v-75.233
	H394.083z"/>
<path d="M256,15.673c28.619,0,55.904,8.651,78.878,24.706l-180.756,69.277v-10.39h-15.673v44.538
	c-13.47,1.318-24.033,12.705-24.033,26.515c0,14.692,11.953,26.645,26.645,26.645h32.914V181.29h10.971v-15.673h-10.971v-6.269
	h62.694v3.657c0,7.202-5.859,13.061-13.061,13.061v15.673c15.844,0,28.735-12.891,28.735-28.735v-3.657h7.314v3.657
	c0,15.844,12.891,28.735,28.735,28.735v-15.673c-7.202,0-13.061-5.859-13.061-13.061v-3.657h93.518
	c7.202,0,13.061,5.859,13.061,13.061h15.673c0-14.242-10.419-26.092-24.033-28.344V99.265h-15.673v8.127l-61.227-35.578l52.4-20.083
	c1.558,1.423,3.091,2.882,4.592,4.383c24.33,24.329,38.637,56.621,40.283,90.923l15.655-0.751
	c-1.833-38.204-17.762-74.164-44.855-101.254C335.687,15.993,297.075,0,256,0c-77.514,0-143.112,57.927-152.59,134.742l15.555,1.918
	C127.475,67.686,186.388,15.673,256,15.673z M158.302,181.29h-17.241c-6.05,0-10.971-4.921-10.971-10.971
	s4.921-10.971,10.971-10.971h17.241V181.29z M357.878,125.518v18.155H154.122V126.44l123.729-47.421L357.878,125.518z"/>
<path d="M305.957,287.636l-5.873,14.53c9.47,3.829,18.296,8.822,26.391,14.903L256,387.546l-70.512-70.513
	c7.998-5.966,16.847-10.99,26.43-14.867l-5.878-14.528c-24.309,9.834-45.033,26.501-59.933,48.198
	c-15.263,22.225-23.332,48.274-23.332,75.332V512h266.449V411.167c0-35.594-13.86-69.049-39.022-94.198
	C337.473,304.226,322.587,294.358,305.957,287.636z M373.551,496.327H336.98v-92.996H305.11v15.673h16.196v77.322H190.694v-77.322
	h16.196v-15.673H175.02v92.996h-36.571v-85.159c0-32.353,13.03-62.268,35.104-83.901L256,409.711l82.382-82.381
	c0.246,0.241,0.494,0.476,0.738,0.721c22.203,22.193,34.431,51.71,34.431,83.116V496.327z"/>
<path d="M256,339.069c18.726,0,33.959-15.234,33.959-33.959V271.9c43.735-13.186,77.145-51.202,82.764-98.568l-15.566-1.847
	c-6.067,51.16-49.555,89.74-101.158,89.74c-27.208,0-52.792-10.596-72.038-29.832c-7.385-7.395-13.558-15.803-18.344-24.99
	l-13.9,7.243c5.523,10.6,12.641,20.298,21.159,28.828c13.953,13.945,30.79,23.951,49.165,29.467v33.169
	C222.041,323.836,237.274,339.069,256,339.069z M274.286,275.472v29.639c0,10.082-8.203,18.286-18.286,18.286
	c-10.082,0-18.286-8.204-18.286-18.286v-29.625c5.996,0.931,12.103,1.413,18.286,1.413
	C262.211,276.898,268.317,276.407,274.286,275.472z"/>
<path d="M300.692,224.168l-11.614-10.524c-8.446,9.32-20.503,14.666-33.077,14.666c-12.574,0-24.631-5.346-33.077-14.666
	l-11.614,10.524c11.409,12.593,27.699,19.815,44.69,19.815S289.281,236.761,300.692,224.168z"/>
<g>
</g>
<g>
</g>
<g>
</g>
<g>
</g>
<g>
</g>
<g>
</g>
<g>
</g>
<g>
</g>
<g>
</g>
<g>
</g>
<g>
</g>
<g>
</g>
<g>
</g>
<g>
</g>
<g>
</g>
</svg>
