<?xml version="1.0" encoding="iso-8859-1"?>
<!-- Generator: Adobe Illustrator 19.0.0, SVG Export Plug-In . SVG Version: 6.00 Build 0)  -->
<svg version="1.1" id="Layer_1" xmlns="http://www.w3.org/2000/svg" xmlns:xlink="http://www.w3.org/1999/xlink" x="0px" y="0px"
	 viewBox="0 0 512 512" style="enable-background:new 0 0 512 512;" xml:space="preserve">
<circle style="fill:#32BEA6;" cx="256" cy="256" r="256"/>
<polygon style="fill:#FACB1B;" points="256,125.673 125.673,181.527 125.673,349.091 256,404.945 386.327,349.091 386.327,181.527 
	"/>
<polygon style="fill:#059BBF;" points="386.327,181.527 256,237.382 125.673,181.527 256,125.673 "/>
<polygon style="fill:#21B2D1;" points="256,125.673 125.673,181.527 208.189,216.893 286.385,138.696 "/>
<polygon style="fill:#DF2C2C;" points="256,237.382 256,404.945 386.327,349.091 386.327,181.527 "/>
<path style="fill:#E2E4E5;" d="M221.64,203.813l-0.214-0.13c-20.913-12.926-22.854-32.721-1.08-45.922
	c10.636-6.447,20.769-8.988,31.158-9.756c2.881-0.2,6.614,0.368,9.449,2.122c4.413,2.728,4.44,6.959,0.186,9.537
	c-2.127,1.289-4.385,1.629-6.237,1.848c-7.717,0.563-14.168,2.155-19.74,5.534c-11.948,7.242-10.254,18.828,2.355,26.619l0.209,0.13
	c12.614,7.796,31.53,9.193,43.683,1.829c6.582-3.994,8.834-7.931,9.612-12.907c0.163-1.387,1.047-2.821,2.872-3.928
	c3.952-2.392,10.654-2.341,14.755,0.191c2.523,1.559,3.305,3.528,3.146,5.167c-0.596,7.443-4.622,14.127-15.965,21.006
	C274.967,217.8,242.762,216.865,221.64,203.813z"/>
<g>
	<path style="fill:#FFFFFF;" d="M280.767,279.547c0-5.762,4.17-12.106,9.444-14.364c12.167-5.213,18.25-7.82,30.417-13.037
		c9.812-4.208,17.543-4.566,22.444-1.313c3.924,2.607,5.888,6.991,5.888,13.428c0,0.107,0,0.158,0,0.265
		c0,10.589-11.283,25.079-11.283,25.079c0.307,0.712,16.068,3.57,16.068,16.17c0,0.107,0,0.158,0,0.265
		c0,17.157-12.753,31.199-32.135,39.508c-12.563,5.381-18.842,8.076-31.4,13.456c-5.274,2.257-9.444-0.507-9.444-6.27
		C280.767,323.463,280.767,308.82,280.767,279.547z M316.584,291.807c8.341-3.575,13.615-8.783,13.615-15.756
		c0-0.107,0-0.158,0-0.265c0-6.167-4.417-7.759-12.39-4.343c-7.461,3.198-11.185,4.794-18.646,7.992c0,7.936,0,11.902,0,19.838
		C306.129,296.29,309.616,294.796,316.584,291.807z M321.61,327.457c8.341-3.575,13.368-8.946,13.368-15.919
		c0-0.107,0-0.158,0-0.265c0-6.302-4.291-8.35-13.982-4.198c-8.732,3.742-13.098,5.613-21.835,9.356c0,8.257,0,12.386,0,20.643
		C308.145,333.228,312.632,331.306,321.61,327.457z"/>
	<path style="fill:#FFFFFF;" d="M154.55,313.795c10.277-24.436,15.416-36.659,25.693-61.096c1.792-4.203,5.055-5.818,9.481-3.919
		c0.382,0.163,0.568,0.242,0.95,0.405c4.422,1.894,7.582,6.26,9.374,11.999c10.277,33.247,15.416,49.873,25.693,83.121
		c0.526,1.666,0.842,3.109,0.842,4.417c0,5.367-3.37,8.239-7.685,6.386c-3.789-1.624-6.316-5.455-7.792-10.277
		c-1.978-6.605-2.97-9.91-4.948-16.514c-12.972-5.562-19.461-8.341-32.438-13.903c-2.062,5.139-3.095,7.703-5.157,12.842
		c-1.368,3.337-4.105,4.52-7.475,3.077c-4.226-1.811-7.489-7.396-7.489-12.628C153.6,316.267,154.024,315.006,154.55,313.795z
		 M200.145,307.945c-4.087-13.843-6.13-20.764-10.212-34.611c-4.087,10.342-6.13,15.514-10.217,25.851
		C187.885,302.69,191.972,304.44,200.145,307.945z"/>
	<path style="fill:#FFFFFF;" d="M235.171,167.047c5.571-3.375,12.023-4.971,19.74-5.53c1.848-0.219,4.11-0.563,6.237-1.848
		c4.254-2.579,4.226-6.81-0.186-9.537c-2.835-1.75-6.568-2.323-9.449-2.122c-10.394,0.768-20.527,3.309-31.162,9.756
		c-21.769,13.196-19.833,32.982,1.061,45.908l12.558-12.563C224.735,183.501,224.465,173.535,235.171,167.047z"/>
</g>
<g>
</g>
<g>
</g>
<g>
</g>
<g>
</g>
<g>
</g>
<g>
</g>
<g>
</g>
<g>
</g>
<g>
</g>
<g>
</g>
<g>
</g>
<g>
</g>
<g>
</g>
<g>
</g>
<g>
</g>
</svg>
